<?xml version="1.0" encoding="UTF-8"?>
<svg width="23px" height="16px" viewBox="0 0 23 16" version="1.1" xmlns="http://www.w3.org/2000/svg" xmlns:xlink="http://www.w3.org/1999/xlink">
    <!-- Generator: Sketch 52.2 (67145) - http://www.bohemiancoding.com/sketch -->
    <title>dashboard_d</title>
    <desc>Created with Sketch.</desc>
    <g id="Page-1" stroke="none" stroke-width="1" fill="none" fill-rule="evenodd">
        <g id="Admin_template" transform="translate(-15.000000, -158.000000)" fill="#000000">
            <g id="dashboard_d" transform="translate(15.000000, 158.000000)">
                <path d="M16.4545234,5.88431641 L10.8449043,10.816334 C10.8374023,10.8228926 10.8299453,10.8294512 10.8233867,10.836459 C10.6418125,11.0170898 10.5416816,11.2580508 10.5416816,11.514959 C10.5416816,12.0432402 10.9712695,12.4732773 11.5,12.4732773 C11.7545723,12.4732773 11.995084,12.3740898 12.1991191,12.1700547 L17.1311816,6.56043555 C17.297752,6.37091016 17.2884082,6.08408398 17.1096641,5.90533984 C16.930875,5.72708984 16.6454414,5.71770117 16.4545234,5.88431641 Z" id="Path"></path>
                <path d="M11.5,0.0149589844 C5.15851367,0.0149589844 0,5.1739668 0,11.514959 C0,12.7044453 0.184359375,13.8818027 0.546564453,15.0151367 C0.61021875,15.2135566 0.794578125,15.3483223 1.00328516,15.3483223 L21.9967598,15.3483223 C22.2054668,15.3483223 22.3898262,15.2135566 22.4534805,15.0151367 C22.8156406,13.8818027 23,12.7044902 23,11.514959 C23,5.1739668 17.8414863,0.0149589844 11.5,0.0149589844 Z M20.6041816,11.9941406 L22.0084395,11.9941406 C21.9714238,12.8045312 21.8630273,13.6089473 21.6411133,14.389959 L1.35888672,14.389959 C1.13697266,13.6089023 1.02857617,12.8045312 0.991560547,11.9941406 L2.39581836,11.9941406 C2.66067773,11.9941406 2.875,11.7798184 2.875,11.514959 C2.875,11.2500996 2.66067773,11.0357773 2.39581836,11.0357773 L0.982576172,11.0357773 C1.05359766,9.46715039 1.4623418,7.9871543 2.14820898,6.66901172 L3.3756543,7.37792383 C3.45148242,7.42145312 3.53382422,7.44202734 3.61522266,7.44202734 C3.77995117,7.44202734 3.94184961,7.35640625 4.02980664,7.20245898 C4.16268555,6.97317773 4.08407227,6.68024219 3.85479102,6.5478125 L2.63008594,5.84047266 C3.45318945,4.55844727 4.54384766,3.46787891 5.82591797,2.64482031 L6.53325781,3.87028906 C6.62121484,4.02378711 6.7831582,4.10985742 6.9478418,4.10985742 C7.02928516,4.10985742 7.11162695,4.0892832 7.18741016,4.04575391 C7.41669141,3.91332422 7.49530469,3.62038867 7.36242578,3.39110742 L6.65369336,2.16330273 C7.97192578,1.4773457 9.45201172,1.06855664 11.0207734,0.997535156 L11.0207734,2.41077734 C11.0207734,2.67563672 11.2350957,2.88995898 11.4999551,2.88995898 C11.7648145,2.88995898 11.9791367,2.67563672 11.9791367,2.41077734 L11.9791367,0.997535156 C13.5478984,1.06855664 15.0279844,1.4773457 16.3462168,2.16330273 L15.6374844,3.39110742 C15.5046055,3.62038867 15.5832187,3.91332422 15.8125,4.04575391 C15.8883281,4.0892832 15.9706699,4.10985742 16.0520684,4.10985742 C16.2167969,4.10985742 16.3786953,4.02374219 16.4666523,3.87028906 L17.1739922,2.64482031 C18.4560625,3.46787891 19.5467207,4.55844727 20.3698242,5.84047266 L19.1451191,6.5478125 C18.9158379,6.68024219 18.8372246,6.97317773 18.9701035,7.20245898 C19.0580605,7.35640625 19.2200039,7.44202734 19.3846875,7.44202734 C19.4660859,7.44202734 19.5484727,7.42145312 19.6242559,7.37792383 L20.8517012,6.66901172 C21.5375684,7.98719922 21.9463125,9.46715039 22.017334,11.0357773 L20.6040918,11.0357773 C20.3392324,11.0357773 20.1249102,11.2500996 20.1249102,11.514959 C20.125,11.7798184 20.3393223,11.9941406 20.6041816,11.9941406 Z" id="Shape" fill-rule="nonzero"></path>
            </g>
        </g>
    </g>
</svg>