<?xml version="1.0" encoding="UTF-8"?>
<svg width="24px" height="20px" viewBox="0 0 24 20" version="1.1" xmlns="http://www.w3.org/2000/svg" xmlns:xlink="http://www.w3.org/1999/xlink">
    <!-- Generator: Sketch 52.2 (67145) - http://www.bohemiancoding.com/sketch -->
    <title>event (1)</title>
    <desc>Created with Sketch.</desc>
    <g id="Page-1" stroke="none" stroke-width="1" fill="none" fill-rule="evenodd">
        <g id="QLlichlamviec_ngay" transform="translate(-14.000000, -214.000000)" fill="#000000">
            <g id="leftmenu" transform="translate(-36.000000, -1.000000)">
                <g id="event-(1)" transform="translate(50.000000, 215.000000)">
                    <path d="M8.66666667,8 C7.9314658,8 7.33333333,8.59813247 7.33333333,9.33333333 C7.33333333,10.0685342 7.9314658,10.6666667 8.66666667,10.6666667 C9.40186753,10.6666667 10,10.0685342 10,9.33333333 C10,8.59813247 9.40186753,8 8.66666667,8 Z M8.66666667,10.0128788 C8.29194042,10.0128788 7.98712124,9.70805958 7.98712124,9.33333333 C7.98712124,8.95860709 8.29194042,8.6537879 8.66666667,8.6537879 C9.04134933,8.6537879 9.3462121,8.95860709 9.3462121,9.33333333 C9.3462121,9.70801599 9.04134933,10.0128788 8.66666667,10.0128788 Z" id="Shape" fill-rule="nonzero"></path>
                    <path d="M12.0000218,8 C11.2648329,8 10.6666667,8.59813247 10.6666667,9.33333333 C10.6666667,10.0685342 11.2648329,10.6666667 12.0000218,10.6666667 C12.7352106,10.6666667 13.3333333,10.0685342 13.3333333,9.33333333 C13.3333333,8.59813247 12.7352106,8 12.0000218,8 Z M12.0000218,10.0128788 C11.6252581,10.0128788 11.3204439,9.70805958 11.3204439,9.33333333 C11.3204439,8.95860709 11.6253017,8.6537879 12.0000218,8.6537879 C12.3747419,8.6537879 12.6795561,8.95860709 12.6795561,9.33333333 C12.6795561,9.70805958 12.3746983,10.0128788 12.0000218,10.0128788 Z" id="Shape" fill-rule="nonzero"></path>
                    <path d="M16,8 C15.2647991,8 14.6666667,8.59813247 14.6666667,9.33333333 C14.6666667,10.0685342 15.2647991,10.6666667 16,10.6666667 C16.7352009,10.6666667 17.3333333,10.0685342 17.3333333,9.33333333 C17.3333333,8.59813247 16.7351573,8 16,8 Z M16,10.0128788 C15.6252738,10.0128788 15.3204546,9.70805958 15.3204546,9.33333333 C15.3204546,8.95860709 15.6253173,8.6537879 16,8.6537879 C16.3746827,8.6537879 16.6795454,8.95860709 16.6795454,9.33333333 C16.6795454,9.70805958 16.3746827,10.0128788 16,10.0128788 Z" id="Shape" fill-rule="nonzero"></path>
                    <path d="M8.66666667,11.3333333 C7.9314658,11.3333333 7.33333333,11.9314658 7.33333333,12.6666667 C7.33333333,13.4018675 7.9314658,14 8.66666667,14 C9.40186753,14 10,13.4018675 10,12.6666667 C10,11.9314658 9.40186753,11.3333333 8.66666667,11.3333333 Z M8.66666667,13.3462121 C8.29194042,13.3462121 7.98712124,13.0413929 7.98712124,12.6666667 C7.98712124,12.2919404 8.29194042,11.9871212 8.66666667,11.9871212 C9.04134933,11.9871212 9.3462121,12.2919404 9.3462121,12.6666667 C9.3462121,13.0413929 9.04134933,13.3462121 8.66666667,13.3462121 Z" id="Shape" fill-rule="nonzero"></path>
                    <path d="M16,11.3333333 C15.2647991,11.3333333 14.6666667,11.9314658 14.6666667,12.6666667 C14.6666667,13.4018675 15.2647991,14 16,14 C16.7352009,14 17.3333333,13.4018675 17.3333333,12.6666667 C17.3332898,11.9314658 16.7351573,11.3333333 16,11.3333333 Z M16,13.3462121 C15.6252738,13.3462121 15.3204546,13.0413929 15.3204546,12.6666667 C15.3204546,12.2919404 15.6253173,11.9871212 16,11.9871212 C16.3746827,11.9871212 16.6795454,12.2919404 16.6795454,12.6666667 C16.6795018,13.0413929 16.3746827,13.3462121 16,13.3462121 Z" id="Shape" fill-rule="nonzero"></path>
                    <path d="M12.0000218,11.3333333 C11.2648329,11.3333333 10.6666667,11.9314658 10.6666667,12.6666667 C10.6666667,13.4018675 11.2648329,14 12.0000218,14 C12.7352106,14 13.3333333,13.4018675 13.3333333,12.6666667 C13.3333333,11.9314658 12.7352106,11.3333333 12.0000218,11.3333333 Z M12.0000218,13.3462121 C11.6252581,13.3462121 11.3204439,13.0413929 11.3204439,12.6666667 C11.3204439,12.2919404 11.6253017,11.9871212 12.0000218,11.9871212 C12.3747419,11.9871212 12.6795561,12.2919404 12.6795561,12.6666667 C12.6795561,13.0413929 12.3746983,13.3462121 12.0000218,13.3462121 Z" id="Shape" fill-rule="nonzero"></path>
                    <path d="M12,14.6666667 C11.2647991,14.6666667 10.6666667,15.2648329 10.6666667,16.0000218 C10.6666667,16.7352106 11.2647991,17.3333333 12,17.3333333 C12.7352009,17.3333333 13.3333333,16.7352106 13.3333333,16.0000218 C13.3333333,15.2648329 12.7352009,14.6666667 12,14.6666667 Z M12,16.6795125 C11.6252302,16.6795125 11.320411,16.3746983 11.320411,15.9999782 C11.3204546,15.6253017 11.6252738,15.3204003 12,15.3204003 C12.3747262,15.3204003 12.6795454,15.6252145 12.6795454,15.9999782 C12.6795454,16.3746983 12.3746827,16.6795125 12,16.6795125 Z" id="Shape" fill-rule="nonzero"></path>
                    <path d="M8.66666667,14.6666667 C7.9314658,14.6666667 7.33333333,15.2648329 7.33333333,16.0000218 C7.33333333,16.7352106 7.9314658,17.3333333 8.66666667,17.3333333 C9.40186753,17.3333333 10,16.7352106 10,16.0000218 C10,15.2648329 9.40186753,14.6666667 8.66666667,14.6666667 Z M8.66666667,16.6795125 C8.29194042,16.6795125 7.98712124,16.3746983 7.98712124,15.9999782 C7.98712124,15.6252581 8.29194042,15.3204003 8.66666667,15.3204003 C9.04134933,15.3204003 9.3462121,15.6252145 9.3462121,15.9999782 C9.34616851,16.3746983 9.04134933,16.6795125 8.66666667,16.6795125 Z" id="Shape" fill-rule="nonzero"></path>
                    <path d="M5.92685144,9.33334033 L6.54376394,8.71639223 C6.70764357,8.55250315 6.70764357,8.28683387 6.54370799,8.12288884 C6.37988432,7.95905571 6.11417441,7.95899976 5.95023884,8.12294479 L5.33338229,8.73983693 L4.71652574,8.12294479 C4.55264612,7.95905571 4.28693621,7.95899976 4.12305659,8.12288884 C3.95912102,8.28683387 3.95912102,8.55250315 4.12300064,8.71639223 L4.73991314,9.33334033 L4.12300064,9.95028843 C3.95900911,10.1141216 3.95900911,10.3797908 4.12294469,10.5437918 C4.20485652,10.6257084 4.31228188,10.6666667 4.41965129,10.6666667 C4.5270207,10.6666667 4.63444605,10.6257084 4.71641384,10.5437359 L5.33327039,9.92684373 L5.95012694,10.5437359 C6.03209472,10.6257084 6.13946413,10.6666667 6.24688949,10.6666667 C6.3542589,10.6666667 6.46168426,10.6257084 6.54359609,10.5437918 C6.70753166,10.3798468 6.70753166,10.1141775 6.54365204,9.95028843 L5.92685144,9.33334033 Z" id="Path"></path>
                    <path d="M5.92685144,12.6666737 L6.54376394,12.0497256 C6.70764357,11.8858365 6.70764357,11.6201672 6.54370799,11.4562222 C6.37988432,11.292389 6.11417441,11.2923331 5.95023884,11.4562781 L5.33338229,12.0731703 L4.71652574,11.4562781 C4.55264612,11.2923331 4.28693621,11.292389 4.12305659,11.4562222 C3.95912102,11.6201672 3.95912102,11.8858365 4.12300064,12.0497256 L4.73991314,12.6666737 L4.12300064,13.2836218 C3.95900911,13.4474549 3.95900911,13.7131242 4.12294469,13.8771252 C4.20485652,13.9590417 4.31228188,14 4.41965129,14 C4.5270207,14 4.63444605,13.9590417 4.71641384,13.8770692 L5.33327039,13.2601771 L5.95012694,13.8770692 C6.03209472,13.9590417 6.13946413,14 6.24688949,14 C6.3542589,14 6.46168426,13.9590417 6.54359609,13.8771252 C6.70753166,13.7131801 6.70753166,13.4475108 6.54365204,13.2836218 L5.92685144,12.6666737 Z" id="Path"></path>
                    <path d="M6.54377158,17.283562 L5.92691827,16.6666667 L6.54377158,16.0497713 C6.70753844,15.8858813 6.70753844,15.6202107 6.54365968,15.4562088 C6.37972497,15.2923748 6.1140724,15.2923748 5.95013769,15.4562088 L5.33328437,16.0731042 L4.71643106,15.4562088 C4.55249635,15.2923748 4.28684378,15.2923748 4.12290907,15.4562088 C3.95903031,15.6201547 3.95903031,15.8858254 4.12290907,16.0497713 L4.73976238,16.6666667 L4.12290907,17.283562 C3.95903031,17.4475079 3.95903031,17.7131786 4.12290907,17.8771245 C4.20487643,17.9590415 4.31230122,18 4.41967007,18 C4.52703891,18 4.63446371,17.9590415 4.71643106,17.8771245 L5.33328437,17.2602291 L5.95013769,17.8771245 C6.03210504,17.9590415 6.13952984,18 6.24689868,18 C6.35426753,18 6.46169232,17.9590415 6.54365968,17.8771245 C6.70765034,17.7131227 6.70765034,17.447452 6.54377158,17.283562 Z" id="Path"></path>
                    <path d="M23.9798024,17.6843334 L23.0209741,12.6780084 C22.9847397,12.4887684 22.8002865,12.3644997 22.6098803,12.4004502 C22.4191458,12.4364007 22.2938958,12.61899 22.3301302,12.808323 L23.2889585,17.8146481 C23.3425835,18.0948572 23.1041304,18.3593467 22.7793334,18.3593467 L17.576676,18.3593467 L20.951208,15.0113014 C21.0129424,14.9500507 21.0541455,14.8605698 21.0541455,14.7646244 L21.0541455,6.14604359 L22.0183176,11.1804128 C22.054552,11.3696528 22.2387708,11.4939679 22.4293646,11.457971 C22.620099,11.4220205 22.745349,11.2394311 22.7091146,11.0500981 L21.0518486,2.39700862 C21.0279893,1.88221451 20.5996454,1.47043503 20.0750672,1.47043503 L16.9939727,1.47043503 L16.9939727,0.348808007 C16.9939727,0.156126464 16.8366133,0 16.6424101,0 C16.4482069,0 16.2908475,0.156126464 16.2908475,0.348808007 L16.2908475,1.47038853 L13.9363157,1.47038853 L13.9363157,0.348808007 C13.9363157,0.156126464 13.7789563,0 13.5847532,0 C13.39055,0 13.2331906,0.156126464 13.2331906,0.348808007 L13.2331906,1.47038853 L10.8786119,1.47038853 L10.8786119,0.348808007 C10.8786119,0.156126464 10.7212525,0 10.5270493,0 C10.3328461,0 10.1754867,0.156126464 10.1754867,0.348808007 L10.1754867,1.47038853 L7.82095494,1.47038853 L7.82095494,0.348808007 C7.82095494,0.156126464 7.66359553,0 7.46939236,0 C7.27518919,0 7.11782978,0.156126464 7.11782978,0.348808007 L7.11782978,1.47038853 L4.76329798,1.47038853 L4.76329798,0.348808007 C4.76329798,0.156126464 4.60593857,0 4.4117354,0 C4.21753223,0 4.06017282,0.156126464 4.06017282,0.348808007 L4.06017282,1.47038853 L0.979078352,1.47038853 C0.439218852,1.47043503 0,1.906166 0,2.44184208 L0,19.0286395 C0,19.564269 0.439218852,20 0.979078352,20 L9.70673663,20 C9.9009398,20 10.0582992,19.8438735 10.0582992,19.651192 C10.0582992,19.4585105 9.9009398,19.302384 9.70673663,19.302384 L0.979078352,19.302384 C0.826968942,19.302384 0.703172038,19.1796036 0.703172038,19.028686 L0.703172038,5.99945121 L20.3510204,5.99945121 L20.3510204,14.4156768 L16.4048007,14.4156768 C15.8649412,14.4156768 15.4257692,14.8514543 15.4257692,15.3870839 L15.4257692,19.3023375 L11.3474089,19.3023375 C11.1532057,19.3023375 10.9958463,19.4584639 10.9958463,19.6511455 C10.9958463,19.843827 11.1532057,19.9999535 11.3474089,19.9999535 L15.7773318,19.9999535 C15.8680349,19.9999535 15.9589725,19.9642821 16.0259568,19.8978225 L16.873457,19.0569627 L22.7793803,19.0569627 C23.5429742,19.0569627 24.1163962,18.39739 23.9798024,17.6843334 Z M0.703172038,5.30178869 L0.703172038,2.44184208 C0.703172038,2.29092448 0.826968942,2.16809755 0.979078352,2.16809755 L4.06017282,2.16809755 L4.06017282,3.73494312 C4.06017282,3.92762466 4.21753223,4.08375113 4.4117354,4.08375113 C4.60593857,4.08375113 4.76329798,3.92762466 4.76329798,3.73494312 L4.76329798,2.16809755 L7.11782978,2.16809755 L7.11782978,3.73494312 C7.11782978,3.92762466 7.27518919,4.08375113 7.46939236,4.08375113 C7.66359553,4.08375113 7.82095494,3.92762466 7.82095494,3.73494312 L7.82095494,2.16809755 L10.1754867,2.16809755 L10.1754867,3.73494312 C10.1754867,3.92762466 10.3328461,4.08375113 10.5270493,4.08375113 C10.7212525,4.08375113 10.8786119,3.92762466 10.8786119,3.73494312 L10.8786119,2.16809755 L13.2331906,2.16809755 L13.2331906,3.73494312 C13.2331906,3.92762466 13.39055,4.08375113 13.5847532,4.08375113 C13.7789563,4.08375113 13.9363157,3.92762466 13.9363157,3.73494312 L13.9363157,2.16809755 L16.2908475,2.16809755 L16.2908475,3.73494312 C16.2908475,3.92762466 16.4482069,4.08375113 16.6424101,4.08375113 C16.8366133,4.08375113 16.9939727,3.92762466 16.9939727,3.73494312 L16.9939727,2.16809755 L20.0750672,2.16809755 C20.2271766,2.16809755 20.3509735,2.29092448 20.3509735,2.44184208 L20.3509735,5.3018352 L0.703172038,5.3018352 L0.703172038,5.30178869 Z M16.1288944,18.8090299 L16.1288944,15.3871304 C16.1288944,15.2362128 16.2526444,15.1133859 16.4047538,15.1133859 L19.8537234,15.1133859 C19.5019264,15.4624729 16.4814413,18.4592453 16.1288944,18.8090299 Z" id="Shape" fill-rule="nonzero"></path>
                </g>
            </g>
        </g>
    </g>
</svg>