<?xml version="1.0" encoding="UTF-8"?>
<svg width="23px" height="29px" viewBox="0 0 23 29" version="1.1" xmlns="http://www.w3.org/2000/svg" xmlns:xlink="http://www.w3.org/1999/xlink">
    <!-- Generator: Sketch 52.2 (67145) - http://www.bohemiancoding.com/sketch -->
    <title>doctor_d</title>
    <desc>Created with Sketch.</desc>
    <g id="Page-1" stroke="none" stroke-width="1" fill="none" fill-rule="evenodd">
        <g id="Admin_template" transform="translate(-15.000000, -601.000000)" fill="#000000">
            <g id="doctor_d" transform="translate(15.000000, 601.000000)">
                <path d="M14.6656963,17.4329271 L14.6656963,15.1246338 C16.3278057,14.0683218 17.4329271,12.2107591 17.4329271,10.1000789 L17.4329271,2.62879357 C17.4329271,1.17919922 16.2535118,2.84217094e-14 14.8041335,2.84217094e-14 L13.8551589,2.84217094e-14 L13.8551589,0.830190805 L14.8041335,0.830190805 C15.7958703,0.830190805 16.6027363,1.63705679 16.6027363,2.62879357 L16.6027363,6.08777794 L9.82320463,6.08777794 L9.82320463,6.91775279 L16.6027363,6.91775279 L16.6027363,10.1000789 C16.6027363,12.922814 14.3063213,15.2192289 11.4835862,15.2192289 C9.77893068,15.2192289 8.19133113,14.3743521 7.23652533,12.9590971 L6.54822716,13.4232178 C7.01645132,14.1173471 7.61620153,14.6926927 8.30147614,15.1267935 L8.30147614,17.4329271 L4.84249176,17.4329271 C2.17244781,17.4329271 -2.84217094e-14,19.6051589 -2.84217094e-14,22.2752028 L-2.84217094e-14,24.4748629 L0.830190805,24.4750789 L0.830190805,22.2752028 C0.830190805,20.0628005 2.63008937,18.2631179 4.84249176,18.2631179 L5.70032675,18.2631179 L5.70032675,21.334867 C4.14101941,21.5389592 2.93309606,22.875169 2.93309606,24.489117 L2.93309606,27.6712271 L4.7872033,27.6712271 L4.7872033,26.8410363 L3.76328687,26.8410363 L3.76328687,24.489117 C3.76328687,23.1922138 4.81830306,22.1369817 6.11542218,22.1369817 C7.41232533,22.1369817 8.46734152,23.1922138 8.46734152,24.489117 L8.46734152,26.8410363 L7.44364105,26.8410363 L7.44364105,27.6712271 L9.29753227,27.6712271 L9.29753227,24.489117 C9.29753227,22.875169 8.08960899,21.5389592 6.53051761,21.334867 L6.53051761,18.2631179 L8.48634693,18.2631179 L11.4835862,23.058528 L14.4808255,18.2631179 L16.4921593,18.2631179 L16.4921593,22.1743446 C15.3924373,22.3710938 14.5551194,23.3338904 14.5551194,24.489117 C14.5551194,25.7860201 15.6101356,26.8410363 16.9070388,26.8410363 C18.2041579,26.8410363 19.2591741,25.7860201 19.2591741,24.489117 C19.2591741,23.3338904 18.4218562,22.3710938 17.3221342,22.1743446 L17.3221342,18.2631179 L18.1246807,18.2631179 C18.78987,18.2631179 19.4485802,18.4289833 20.029541,18.7430044 L20.4243352,18.012808 C19.7224309,17.6333477 18.9272273,17.4329271 18.1246807,17.4329271 L14.6656963,17.4329271 Z M13.8357215,17.7288067 L11.4835862,21.4923096 L9.13145093,17.7288067 L9.13145093,15.5647818 C9.86359113,15.8798828 10.6618183,16.0494197 11.4835862,16.0494197 C12.3185284,16.0494197 13.113732,15.8762113 13.8357215,15.5641338 L13.8357215,17.7288067 Z M18.4289833,24.489117 C18.4289833,25.3283785 17.7463003,26.0110615 16.9070388,26.0110615 C16.0679932,26.0110615 15.3853103,25.3283785 15.3853103,24.489117 C15.3853103,23.6498554 16.0679932,22.9671725 16.9070388,22.9671725 C17.7463003,22.9671725 18.4289833,23.6498554 18.4289833,24.489117 Z" id="Shape" fill-rule="nonzero"></path>
                <path d="M22.9671725,22.2752028 C22.9671725,20.8109225 22.3149414,19.4410212 21.1776404,18.5162354 L20.6539119,19.1604755 C21.5964074,19.926739 22.1369817,21.0620962 22.1369817,22.2752028 L22.1369817,28.3076923 L22.9671725,28.3076923 L22.9671725,22.2752028 Z" id="Path"></path>
                <polygon id="Path" points="0 25.3059176 0.830190805 25.3059176 0.830190805 28.3076923 0 28.3076923"></polygon>
                <path d="M6.85663311,12.2932598 C6.53008564,11.6056096 6.36443621,10.8676382 6.36443621,10.1000789 L6.36443621,6.91775279 L8.99322978,6.91775279 L8.99322978,6.08777794 L6.36443621,6.08777794 L6.36443621,2.62879357 C6.36443621,1.63705679 7.17130219,0.830190805 8.16303897,0.830190805 L13.0249681,0.830190805 L13.0249681,0 L8.16303897,0 C6.71344462,0 5.5342454,1.17919922 5.5342454,2.62879357 L5.5342454,10.1000789 C5.5342454,10.9918213 5.72689114,11.8496563 6.10678335,12.6493953 L6.85663311,12.2932598 Z" id="Path"></path>
                <path d="M9.64481292,13.9745906 L10.0018123,13.2251728 C9.57721415,13.0230243 9.20336917,12.7407508 8.89064381,12.3865591 L8.2684326,12.9362041 C8.65566785,13.3746244 9.11870871,13.7240647 9.64481292,13.9745906 Z" id="Path"></path>
                <path d="M7.37841797,11.3438533 C7.46739784,11.6367093 7.58834135,11.9207106 7.73800893,12.1882982 L8.46237419,11.7829215 C8.34186259,11.5673828 8.24445991,11.338454 8.17275763,11.1026142 L7.37841797,11.3438533 Z" id="Path"></path>
                <polygon id="Path" points="16.4921593 24.0740215 17.3221342 24.0740215 17.3221342 24.9042124 16.4921593 24.9042124"></polygon>
                <polygon id="Path" points="11.8986817 5.11915003 11.8986817 3.87407975 13.1437519 3.87407975 13.1437519 3.043889 11.8986817 3.043889 11.8986817 1.79860276 11.0684908 1.79860276 11.0684908 3.043889 9.82320463 3.043889 9.82320463 3.87407975 11.0684908 3.87407975 11.0684908 5.11915003"></polygon>
            </g>
        </g>
    </g>
</svg>