<?xml version="1.0" encoding="UTF-8"?>
<svg width="22px" height="20px" viewBox="0 0 22 20" version="1.1" xmlns="http://www.w3.org/2000/svg" xmlns:xlink="http://www.w3.org/1999/xlink">
    <!-- Generator: Sketch 52.2 (67145) - http://www.bohemiancoding.com/sketch -->
    <title>862032</title>
    <desc>Created with Sketch.</desc>
    <g id="Page-1" stroke="none" stroke-width="1" fill="none" fill-rule="evenodd">
        <g id="Admin_template" transform="translate(-16.000000, -736.000000)" fill="#000000" fill-rule="nonzero">
            <g id="862032" transform="translate(16.000000, 736.000000)">
                <path d="M14.8446272,8.87103342 C14.8431003,8.87103342 14.8416298,8.87103342 14.8401028,8.87103342 L12.9986632,8.87103342 L12.9986632,7.02506941 C13.0011517,6.65276607 12.7013522,6.3488946 12.3290488,6.34640617 C12.3275219,6.34640617 12.3259949,6.34640617 12.3245244,6.34640617 L9.66416452,6.34640617 C9.29186118,6.34640617 8.99002571,6.64824165 8.99002571,7.02054499 L8.99002571,8.866509 L7.14858612,8.866509 C6.77628278,8.86402057 6.47241131,9.1637635 6.46992288,9.53606684 C6.46992288,9.53912082 6.46992288,9.54211825 6.46992288,9.54517224 L6.46992288,12.2010077 C6.46992288,12.5733111 6.77175835,12.8751465 7.1440617,12.8751465 L8.99002571,12.8751465 L8.99002571,14.7165861 C8.98753728,15.0888895 9.28733676,15.3927609 9.6596401,15.3952494 C9.6611671,15.3952494 9.66269409,15.3952494 9.66416452,15.3952494 L12.32,15.3952494 C12.6923033,15.3952494 12.9941388,15.0934139 12.9941388,14.7211105 L12.9941388,12.8751465 L14.8401028,12.8751465 C15.2124062,12.877635 15.5162776,12.5778355 15.5187661,12.2055321 C15.5187661,12.2040051 15.5187661,12.2024781 15.5187661,12.2010077 L15.5187661,9.54517224 C15.5187661,9.17286889 15.2169871,8.87103342 14.8446272,8.87103342 Z M14.6138817,11.9702622 L12.5462211,11.9702622 C12.2963599,11.9702622 12.0937789,12.1728432 12.0937789,12.4227044 L12.0937789,14.490365 L9.89491003,14.490365 L9.89491003,12.4227044 C9.89491003,12.1728432 9.69232905,11.9702622 9.44246787,11.9702622 L7.3748072,11.9702622 L7.3748072,9.77591774 L9.44246787,9.77591774 C9.69232905,9.77591774 9.89491003,9.57333676 9.89491003,9.32347558 L9.89491003,7.25129049 L12.0892545,7.25129049 L12.0892545,9.31895116 C12.0892545,9.56881234 12.2918355,9.77139332 12.5416967,9.77139332 L14.6138817,9.77139332 L14.6138817,11.9702622 Z" id="Shape"></path>
                <path d="M18.866838,2.96213882 L15.1387147,2.96213882 L15.1387147,1.36954242 C15.1621851,0.642807198 14.5920514,0.0346118252 13.8653162,0.0111413882 C13.8282725,0.00995372751 13.7912288,0.0102930591 13.7542416,0.0122159383 L8.2344473,0.0122159383 C7.50827763,-0.0256195373 6.88894087,0.532354756 6.85104884,1.25846787 C6.84912596,1.29545501 6.84873008,1.33249871 6.84997429,1.36954242 L6.84997429,2.95308997 L3.1218509,2.95308997 C1.68308483,2.95308997 0,3.77201028 0,6.07494087 L0,15.9155578 C0,18.2184884 1.68308483,19.0374087 3.1218509,19.0374087 L18.866838,19.0374087 C20.3056041,19.0374087 21.9886889,18.2184884 21.9886889,15.9155578 L21.9886889,6.08398972 C21.9886889,3.78105913 20.3101285,2.96213882 18.866838,2.96213882 Z M7.75485861,1.36954242 C7.75485861,1.23833419 7.75485861,0.885429306 8.23897172,0.885429306 L13.7542416,0.885429306 C14.2383548,0.885429306 14.2383548,1.23380977 14.2383548,1.36954242 L14.2383548,2.95308997 L7.75485861,2.95308997 L7.75485861,1.36954242 Z M21.0838046,15.9155578 C21.0838046,17.9153522 19.5364524,18.1325244 18.866838,18.1325244 L3.1218509,18.1325244 C2.45676093,18.1325244 0.904884319,17.9153522 0.904884319,15.9155578 L0.904884319,6.08398972 C0.904884319,4.08419537 2.4522365,3.86702314 3.1218509,3.86702314 L18.866838,3.86702314 C19.531928,3.86702314 21.0838046,4.08419537 21.0838046,6.08398972 L21.0838046,15.9155578 Z" id="Shape"></path>
            </g>
        </g>
    </g>
</svg>