<?xml version="1.0" encoding="UTF-8"?>
<svg width="25px" height="26px" viewBox="0 0 25 26" version="1.1" xmlns="http://www.w3.org/2000/svg" xmlns:xlink="http://www.w3.org/1999/xlink">
    <!-- Generator: Sketch 52.2 (67145) - http://www.bohemiancoding.com/sketch -->
    <title>hospital (2)</title>
    <desc>Created with Sketch.</desc>
    <g id="Page-1" stroke="none" stroke-width="1" fill="none" fill-rule="evenodd">
        <g id="QLlichlamviec_ngay" transform="translate(-13.000000, -406.000000)" fill="#000000">
            <g id="leftmenu" transform="translate(-36.000000, -1.000000)">
                <g id="hospital-(2)" transform="translate(49.000000, 407.000000)">
                    <polygon id="Path" points="3.8908511 10.8185972 12.4467861 3.48502216 16.9561268 7.35014346 17.4438233 6.78116422 12.4467861 2.49812874 1.02412365 12.2888988 1.51182011 12.857878 3.14156841 11.4610623 3.14156841 25.5489022 9.29020863 25.5489022 9.29020863 24.7994246 3.8908511 24.7994246"></polygon>
                    <polygon id="Path" points="12.5091614 0 8.57386786 3.37313653 9.06156437 3.94211577 12.5091614 0.987088323 24.5056761 11.2698431 24.9933727 10.7008639"></polygon>
                    <polygon id="Path" points="0.0249500998 10.7010588 8.00527849 3.86102794 8.492975 4.4302021 0.512646607 11.270038"></polygon>
                    <path d="M15.1320406,22.651182 L15.1320406,19.4037706 L18.379647,19.4037706 L18.379647,14.1578172 L15.1320406,14.1578172 L15.1320406,10.9104057 L9.88628214,10.9104057 L9.88628214,14.1578172 L6.63887071,14.1578172 L6.63887071,19.4037706 L9.88628214,19.4037706 L9.88628214,22.651182 L15.1320406,22.651182 Z M7.38815339,18.654293 L7.38815339,14.9072948 L10.6355648,14.9072948 L10.6355648,11.6596884 L14.3827579,11.6596884 L14.3827579,14.9072948 L17.6301694,14.9072948 L17.6301694,18.654293 L14.3827579,18.654293 L14.3827579,21.9017044 L10.6355648,21.9017044 L10.6355648,18.654293 L7.38815339,18.654293 Z" id="Shape" fill-rule="nonzero"></path>
                    <polygon id="Path" points="17.525106 7.83783992 21.1274716 10.9256097 21.1274716 24.7994246 10.0396862 24.7994246 10.0396862 25.5489022 21.8769492 25.5489022 21.8769492 11.5678798 23.5065026 12.9646956 23.9941991 12.3957164 18.0128025 7.26886073"></polygon>
                    <polygon id="Path" points="18.4416323 10.3388925 18.9293288 9.76991327 19.498503 10.2576098 19.0106116 10.8267839"></polygon>
                    <polygon id="Path" points="14.5131612 6.9737478 15.0008577 6.40476856 17.2212216 8.30818832 16.7335251 8.87716756"></polygon>
                    <polygon id="Path" points="17.3036739 9.36369451 17.7913704 8.79452036 18.3603496 9.28221682 17.8726531 9.85139097"></polygon>
                </g>
            </g>
        </g>
    </g>
</svg>