<?xml version="1.0" encoding="UTF-8"?>
<svg width="20px" height="20px" viewBox="0 0 20 20" version="1.1" xmlns="http://www.w3.org/2000/svg" xmlns:xlink="http://www.w3.org/1999/xlink">
    <!-- Generator: Sketch 52.2 (67145) - http://www.bohemiancoding.com/sketch -->
    <title>note (1)</title>
    <desc>Created with Sketch.</desc>
    <g id="Page-1" stroke="none" stroke-width="1" fill="none" fill-rule="evenodd">
        <g id="Admin_template" transform="translate(-17.000000, -475.000000)" fill="#000000">
            <g id="note-(1)" transform="translate(17.000000, 475.000000)">
                <path d="M19.5825085,0 L0.406779661,0 C0.182169492,0 0,0.182169492 0,0.406779661 L0,19.5825085 C0,19.8071186 0.182169492,19.9892881 0.406779661,19.9892881 L16.7065085,19.9892881 C16.9311186,19.9892881 17.1132881,19.8071186 17.1132881,19.5825085 C17.1132881,19.3578983 16.9311186,19.1757288 16.7065085,19.1757288 L0.813559322,19.1757288 L0.813559322,0.813559322 L19.1757288,0.813559322 L19.1757288,19.5825085 C19.1757288,19.8071186 19.3578983,19.9892881 19.5825085,19.9892881 C19.8071186,19.9892881 19.9892881,19.8071186 19.9892881,19.5825085 L19.9892881,0.406779661 C19.9892881,0.182169492 19.8071186,0 19.5825085,0 Z" id="Path"></path>
                <path d="M4.4620339,4.2319322 C3.60216949,4.2319322 2.90271186,4.93138983 2.90271186,5.79125424 C2.90271186,6.65111864 3.60216949,7.35057627 4.4620339,7.35057627 C5.32189831,7.35057627 6.02135593,6.65111864 6.02135593,5.79125424 C6.02135593,4.93138983 5.32189831,4.2319322 4.4620339,4.2319322 Z M4.4620339,6.53701695 C4.05084746,6.53701695 3.71627119,6.20244068 3.71627119,5.79125424 C3.71627119,5.3800678 4.05084746,5.04549153 4.4620339,5.04549153 C4.87322034,5.04549153 5.20779661,5.3800678 5.20779661,5.79125424 C5.20779661,6.20244068 4.87328814,6.53701695 4.4620339,6.53701695 Z" id="Shape" fill-rule="nonzero"></path>
                <path d="M16.7332203,5.38447458 L7.24169492,5.38447458 C7.01708475,5.38447458 6.83491525,5.56664407 6.83491525,5.79125424 C6.83491525,6.01586441 7.01708475,6.1980339 7.24169492,6.1980339 L16.7332203,6.1980339 C16.9578305,6.1980339 17.14,6.01586441 17.14,5.79125424 C17.14,5.56664407 16.9578983,5.38447458 16.7332203,5.38447458 Z" id="Path"></path>
                <path d="M4.4620339,8.43532203 C4.23742373,8.43532203 4.05525424,8.61749153 4.05525424,8.84210169 C4.05525424,9.06671186 4.23742373,9.24888136 4.4620339,9.24888136 C4.87322034,9.24888136 5.20779661,9.58345763 5.20779661,9.99464407 C5.20779661,10.4058305 4.87322034,10.7404068 4.4620339,10.7404068 C4.05084746,10.7404068 3.71627119,10.4058305 3.71627119,9.99464407 C3.71627119,9.7700339 3.53410169,9.58786441 3.30949153,9.58786441 C3.08488136,9.58786441 2.90271186,9.7700339 2.90271186,9.99464407 C2.90271186,10.8545085 3.60216949,11.5539661 4.4620339,11.5539661 C5.32189831,11.5539661 6.02135593,10.8545085 6.02135593,9.99464407 C6.02135593,9.13477966 5.32189831,8.43532203 4.4620339,8.43532203 Z" id="Path"></path>
                <path d="M16.7332203,9.58786441 L7.24169492,9.58786441 C7.01708475,9.58786441 6.83491525,9.7700339 6.83491525,9.99464407 C6.83491525,10.2192542 7.01708475,10.4014237 7.24169492,10.4014237 L16.7332203,10.4014237 C16.9578305,10.4014237 17.14,10.2192542 17.14,9.99464407 C17.14,9.7700339 16.9578983,9.58786441 16.7332203,9.58786441 Z" id="Path"></path>
                <path d="M4.4620339,12.6387119 C3.60216949,12.6387119 2.90271186,13.3381695 2.90271186,14.1980339 C2.90271186,15.0578983 3.60216949,15.7573559 4.4620339,15.7573559 C5.32189831,15.7573559 6.02135593,15.0578983 6.02135593,14.1980339 C6.02135593,13.3381695 5.32189831,12.6387119 4.4620339,12.6387119 Z M4.4620339,14.9437966 C4.05084746,14.9437966 3.71627119,14.6092203 3.71627119,14.1980339 C3.71627119,13.7868475 4.05084746,13.4522712 4.4620339,13.4522712 C4.87322034,13.4522712 5.20779661,13.7868475 5.20779661,14.1980339 C5.20779661,14.6092203 4.87328814,14.9437966 4.4620339,14.9437966 Z" id="Shape" fill-rule="nonzero"></path>
                <path d="M16.7332203,13.7912542 L7.24169492,13.7912542 C7.01708475,13.7912542 6.83491525,13.9734237 6.83491525,14.1980339 C6.83491525,14.4226441 7.01708475,14.6048136 7.24169492,14.6048136 L16.7332203,14.6048136 C16.9578305,14.6048136 17.14,14.4226441 17.14,14.1980339 C17.14,13.9734237 16.9578983,13.7912542 16.7332203,13.7912542 Z" id="Path"></path>
            </g>
        </g>
    </g>
</svg>