<?xml version="1.0" encoding="UTF-8"?>
<svg width="22px" height="22px" viewBox="0 0 22 22" version="1.1" xmlns="http://www.w3.org/2000/svg" xmlns:xlink="http://www.w3.org/1999/xlink">
    <!-- Generator: Sketch 52.2 (67145) - http://www.bohemiancoding.com/sketch -->
    <title>hospital (3)</title>
    <desc>Created with Sketch.</desc>
    <g id="Page-1" stroke="none" stroke-width="1" fill="none" fill-rule="evenodd">
        <g id="Admin_template" transform="translate(-16.000000, -670.000000)" fill="#000000" fill-rule="nonzero">
            <g id="hospital-(3)" transform="translate(16.000000, 670.000000)">
                <path d="M11,0 C4.93012048,0 0,4.93012048 0,11 C0,17.0698795 4.93012048,22 11,22 C17.0698795,22 22,17.0698795 22,11 C22,4.93012048 17.0698795,0 11,0 Z M11,21.0457831 C5.46024096,21.0457831 0.954216867,16.539759 0.954216867,11 C0.954216867,5.46024096 5.46024096,0.954216867 11,0.954216867 C16.539759,0.954216867 21.0457831,5.46024096 21.0457831,11 C21.0457831,16.539759 16.539759,21.0457831 11,21.0457831 Z" id="Shape"></path>
                <path d="M16.7253012,8.61445783 L13.3855422,8.61445783 L13.3855422,5.2746988 C13.3855422,5.00963855 13.173494,4.79759036 12.9084337,4.79759036 L9.09156627,4.79759036 C8.82650602,4.79759036 8.61445783,5.00963855 8.61445783,5.2746988 L8.61445783,8.61445783 L5.2746988,8.61445783 C5.00963855,8.61445783 4.79759036,8.82650602 4.79759036,9.09156627 L4.79759036,12.9084337 C4.79759036,13.173494 5.00963855,13.3855422 5.2746988,13.3855422 L8.61445783,13.3855422 L8.61445783,16.7253012 C8.61445783,16.9903614 8.82650602,17.2024096 9.09156627,17.2024096 L12.9084337,17.2024096 C13.173494,17.2024096 13.3855422,16.9903614 13.3855422,16.7253012 L13.3855422,13.3855422 L16.7253012,13.3855422 C16.9903614,13.3855422 17.2024096,13.173494 17.2024096,12.9084337 L17.2024096,9.09156627 C17.1759036,8.82650602 16.9638554,8.61445783 16.7253012,8.61445783 Z M16.2746988,12.4313253 L16.2481928,12.4313253 L12.9084337,12.4313253 C12.6433735,12.4313253 12.4313253,12.6433735 12.4313253,12.9084337 L12.4313253,16.2481928 L9.5686747,16.2481928 L9.5686747,12.9084337 C9.5686747,12.6433735 9.35662651,12.4313253 9.09156627,12.4313253 L5.75180723,12.4313253 L5.75180723,9.5686747 L9.09156627,9.5686747 C9.35662651,9.5686747 9.5686747,9.35662651 9.5686747,9.09156627 L9.5686747,5.75180723 L12.4578313,5.75180723 L12.4578313,9.09156627 C12.4578313,9.35662651 12.6698795,9.5686747 12.9349398,9.5686747 L16.2746988,9.5686747 L16.2746988,12.4313253 Z" id="Shape"></path>
            </g>
        </g>
    </g>
</svg>