<?xml version="1.0" encoding="UTF-8"?>
<svg width="22px" height="19px" viewBox="0 0 22 19" version="1.1" xmlns="http://www.w3.org/2000/svg" xmlns:xlink="http://www.w3.org/1999/xlink">
    <!-- Generator: Sketch 52.2 (67145) - http://www.bohemiancoding.com/sketch -->
    <title>event (2)</title>
    <desc>Created with Sketch.</desc>
    <g id="Page-1" stroke="none" stroke-width="1" fill="none" fill-rule="evenodd">
        <g id="Admin_template" transform="translate(-16.000000, -802.000000)" fill="#000000">
            <g id="event-(2)" transform="translate(16.000000, 802.000000)">
                <path d="M7.93624219,7.22072656 C7.21140234,7.22072656 6.62169922,7.81042969 6.62169922,8.53526953 C6.62169922,9.26010937 7.21140234,9.8498125 7.93624219,9.8498125 C8.66108203,9.8498125 9.25078516,9.26010937 9.25078516,8.53526953 C9.25078516,7.81042969 8.66108203,7.22072656 7.93624219,7.22072656 Z M7.93624219,9.20523828 C7.56679687,9.20523828 7.26627344,8.90471484 7.26627344,8.53526953 C7.26627344,8.16582422 7.56679687,7.86530078 7.93624219,7.86530078 C8.30564453,7.86530078 8.60621094,8.16582422 8.60621094,8.53526953 C8.60621094,8.90467188 8.30564453,9.20523828 7.93624219,9.20523828 Z" id="Shape" fill-rule="nonzero"></path>
                <path d="M11.3633867,7.22072656 C10.6385469,7.22072656 10.0488008,7.81042969 10.0488008,8.53526953 C10.0488008,9.26010937 10.6385469,9.8498125 11.3633867,9.8498125 C12.0882266,9.8498125 12.6779297,9.26010937 12.6779297,8.53526953 C12.6779297,7.81042969 12.0882266,7.22072656 11.3633867,7.22072656 Z M11.3633867,9.20523828 C10.9938984,9.20523828 10.693375,8.90471484 10.693375,8.53526953 C10.693375,8.16582422 10.9939414,7.86530078 11.3633867,7.86530078 C11.732832,7.86530078 12.0333555,8.16582422 12.0333555,8.53526953 C12.0333555,8.90471484 11.7327891,9.20523828 11.3633867,9.20523828 Z" id="Shape" fill-rule="nonzero"></path>
                <path d="M14.7905313,7.22072656 C14.0656914,7.22072656 13.4759883,7.81042969 13.4759883,8.53526953 C13.4759883,9.26010937 14.0656914,9.8498125 14.7905313,9.8498125 C15.5153711,9.8498125 16.1050742,9.26010937 16.1050742,8.53526953 C16.1050742,7.81042969 15.5153281,7.22072656 14.7905313,7.22072656 Z M14.7905313,9.20523828 C14.4210859,9.20523828 14.1205625,8.90471484 14.1205625,8.53526953 C14.1205625,8.16582422 14.4211289,7.86530078 14.7905313,7.86530078 C15.1599336,7.86530078 15.4605,8.16582422 15.4605,8.53526953 C15.4605,8.90471484 15.1599336,9.20523828 14.7905313,9.20523828 Z" id="Shape" fill-rule="nonzero"></path>
                <path d="M7.93624219,10.4272695 C7.21140234,10.4272695 6.62169922,11.0169727 6.62169922,11.7418125 C6.62169922,12.4666523 7.21140234,13.0563555 7.93624219,13.0563555 C8.66108203,13.0563555 9.25078516,12.4666523 9.25078516,11.7418125 C9.25078516,11.0169727 8.66108203,10.4272695 7.93624219,10.4272695 Z M7.93624219,12.4117813 C7.56679687,12.4117813 7.26627344,12.1112578 7.26627344,11.7418125 C7.26627344,11.3723672 7.56679687,11.0718438 7.93624219,11.0718438 C8.30564453,11.0718438 8.60621094,11.3723672 8.60621094,11.7418125 C8.60621094,12.1112578 8.30564453,12.4117813 7.93624219,12.4117813 Z" id="Shape" fill-rule="nonzero"></path>
                <path d="M14.7905313,10.4272695 C14.0656914,10.4272695 13.4759883,11.0169727 13.4759883,11.7418125 C13.4759883,12.4666523 14.0656914,13.0563555 14.7905313,13.0563555 C15.5153711,13.0563555 16.1050742,12.4666523 16.1050742,11.7418125 C16.1050313,11.0169727 15.5153281,10.4272695 14.7905313,10.4272695 Z M14.7905313,12.4117813 C14.4210859,12.4117813 14.1205625,12.1112578 14.1205625,11.7418125 C14.1205625,11.3723672 14.4211289,11.0718438 14.7905313,11.0718438 C15.1599336,11.0718438 15.4605,11.3723672 15.4605,11.7418125 C15.460457,12.1112578 15.1599336,12.4117813 14.7905313,12.4117813 Z" id="Shape" fill-rule="nonzero"></path>
                <path d="M11.3633867,10.4272695 C10.6385469,10.4272695 10.0488008,11.0169727 10.0488008,11.7418125 C10.0488008,12.4666523 10.6385469,13.0563555 11.3633867,13.0563555 C12.0882266,13.0563555 12.6779297,12.4666523 12.6779297,11.7418125 C12.6779297,11.0169727 12.0882266,10.4272695 11.3633867,10.4272695 Z M11.3633867,12.4117813 C10.9938984,12.4117813 10.693375,12.1112578 10.693375,11.7418125 C10.693375,11.3723672 10.9939414,11.0718438 11.3633867,11.0718438 C11.732832,11.0718438 12.0333555,11.3723672 12.0333555,11.7418125 C12.0333555,12.1112578 11.7327891,12.4117813 11.3633867,12.4117813 Z" id="Shape" fill-rule="nonzero"></path>
                <path d="M11.3633867,13.6338125 C10.6385469,13.6338125 10.0488437,14.2235586 10.0488437,14.9483984 C10.0488437,15.6732383 10.6385469,16.2629414 11.3633867,16.2629414 C12.0882266,16.2629414 12.6779297,15.6732383 12.6779297,14.9483984 C12.6779297,14.2235586 12.0882266,13.6338125 11.3633867,13.6338125 Z M11.3633867,15.6183242 C10.9938984,15.6183242 10.693375,15.3178008 10.693375,14.9483555 C10.693418,14.5789531 10.9939414,14.2783438 11.3633867,14.2783438 C11.732832,14.2783438 12.0333555,14.5788672 12.0333555,14.9483555 C12.0333555,15.3178008 11.7327891,15.6183242 11.3633867,15.6183242 Z" id="Shape" fill-rule="nonzero"></path>
                <path d="M7.93624219,13.6338125 C7.21140234,13.6338125 6.62169922,14.2235586 6.62169922,14.9483984 C6.62169922,15.6732383 7.21140234,16.2629414 7.93624219,16.2629414 C8.66108203,16.2629414 9.25078516,15.6732383 9.25078516,14.9483984 C9.25078516,14.2235586 8.66108203,13.6338125 7.93624219,13.6338125 Z M7.93624219,15.6183242 C7.56679687,15.6183242 7.26627344,15.3178008 7.26627344,14.9483555 C7.26627344,14.5789102 7.56679687,14.2783438 7.93624219,14.2783438 C8.30564453,14.2783438 8.60621094,14.5788672 8.60621094,14.9483555 C8.60616797,15.3178008 8.30564453,15.6183242 7.93624219,15.6183242 Z" id="Shape" fill-rule="nonzero"></path>
                <path d="M4.96495313,8.5353125 L5.43872656,8.06153906 C5.56458203,7.93568359 5.56458203,7.73166797 5.43868359,7.60576953 C5.31287109,7.47995703 5.1088125,7.47991406 4.98291406,7.6058125 L4.50918359,8.07954297 L4.03545313,7.6058125 C3.90959766,7.47995703 3.70553906,7.47991406 3.57968359,7.60576953 C3.45378516,7.73166797 3.45378516,7.93568359 3.57964063,8.06153906 L4.05341406,8.5353125 L3.57964063,9.00908594 C3.45369922,9.13489844 3.45369922,9.33891406 3.57959766,9.46485547 C3.64250391,9.52776172 3.72500391,9.55921484 3.80746094,9.55921484 C3.88991797,9.55921484 3.97241797,9.52776172 4.03536719,9.4648125 L4.50909766,8.99108203 L4.98282813,9.4648125 C5.04577734,9.52776172 5.12823437,9.55921484 5.21073438,9.55921484 C5.29319141,9.55921484 5.37569141,9.52776172 5.43859766,9.46485547 C5.56449609,9.33895703 5.56449609,9.13494141 5.43864063,9.00908594 L4.96495313,8.5353125 Z" id="Path"></path>
                <path d="M4.96495313,11.7418555 L5.43872656,11.268082 C5.56458203,11.1422266 5.56458203,10.9382109 5.43868359,10.8123125 C5.31287109,10.6865 5.1088125,10.686457 4.98291406,10.8123555 L4.50918359,11.2860859 L4.03545313,10.8123555 C3.90959766,10.686457 3.70553906,10.6865 3.57968359,10.8123125 C3.45378516,10.9382109 3.45378516,11.1422266 3.57964063,11.268082 L4.05341406,11.7418555 L3.57964063,12.2156289 C3.45369922,12.3414414 3.45369922,12.545457 3.57959766,12.6713984 C3.64250391,12.7343047 3.72500391,12.7657578 3.80746094,12.7657578 C3.88991797,12.7657578 3.97241797,12.7343047 4.03536719,12.6713555 L4.50909766,12.197625 L4.98282813,12.6713555 C5.04577734,12.7343047 5.12823437,12.7657578 5.21073438,12.7657578 C5.29319141,12.7657578 5.37569141,12.7343047 5.43859766,12.6713984 C5.56449609,12.5455 5.56449609,12.3414844 5.43864063,12.2156289 L4.96495313,11.7418555 Z" id="Path"></path>
                <path d="M5.43868359,15.422043 L4.96495313,14.9483125 L5.43868359,14.474582 C5.56445312,14.3487266 5.56445312,14.1447109 5.43859766,14.0187695 C5.31269922,13.892957 5.10868359,13.892957 4.98278516,14.0187695 L4.50905469,14.4925 L4.03532422,14.0187695 C3.90942578,13.892957 3.70541016,13.892957 3.57951172,14.0187695 C3.45365625,14.144668 3.45365625,14.3486836 3.57951172,14.474582 L4.05324219,14.9483125 L3.57951172,15.422043 C3.45365625,15.5479414 3.45365625,15.751957 3.57951172,15.8778555 C3.64246094,15.9407617 3.72496094,15.9722148 3.80741797,15.9722148 C3.889875,15.9722148 3.972375,15.9407617 4.03532422,15.8778555 L4.50905469,15.404125 L4.98278516,15.8778555 C5.04573438,15.9407617 5.12823437,15.9722148 5.21069141,15.9722148 C5.29314844,15.9722148 5.37564844,15.9407617 5.43859766,15.8778555 C5.56453906,15.7519141 5.56453906,15.5478984 5.43868359,15.422043 Z" id="Path"></path>
                <path d="M21.9814805,16.3808477 L21.1025547,11.7554766 C21.0693398,11.5806367 20.9002578,11.4658242 20.7257188,11.4990391 C20.5508789,11.5322539 20.4360664,11.7009492 20.4692813,11.875875 L21.348207,16.5012461 C21.3973633,16.7601328 21.1787813,17.0044961 20.8810508,17.0044961 L16.1119492,17.0044961 L19.2052695,13.9112187 C19.2618594,13.8546289 19.2996289,13.771957 19.2996289,13.6833125 L19.2996289,5.72055859 L20.1834531,10.3718398 C20.216668,10.5466797 20.3855352,10.6615352 20.5602461,10.6282773 C20.7350859,10.5950625 20.8498984,10.4263672 20.8166836,10.2514414 L19.2975234,2.25680469 C19.2756523,1.78118359 18.8830039,1.40073828 18.4021406,1.40073828 L15.5778047,1.40073828 L15.5778047,0.364460937 C15.5778047,0.186441406 15.4335586,0.0421953125 15.2555391,0.0421953125 C15.0775195,0.0421953125 14.9332734,0.186441406 14.9332734,0.364460937 L14.9332734,1.40069531 L12.7749531,1.40069531 L12.7749531,0.364460937 C12.7749531,0.186441406 12.630707,0.0421953125 12.4526875,0.0421953125 C12.274668,0.0421953125 12.1304219,0.186441406 12.1304219,0.364460937 L12.1304219,1.40069531 L9.97205859,1.40069531 L9.97205859,0.364460937 C9.97205859,0.186441406 9.8278125,0.0421953125 9.64979297,0.0421953125 C9.47177344,0.0421953125 9.32752734,0.186441406 9.32752734,0.364460937 L9.32752734,1.40069531 L7.16920703,1.40069531 L7.16920703,0.364460937 C7.16920703,0.186441406 7.02496094,0.0421953125 6.84694141,0.0421953125 C6.66892187,0.0421953125 6.52467578,0.186441406 6.52467578,0.364460937 L6.52467578,1.40069531 L4.36635547,1.40069531 L4.36635547,0.364460937 C4.36635547,0.186441406 4.22210937,0.0421953125 4.04408984,0.0421953125 C3.86607031,0.0421953125 3.72182422,0.186441406 3.72182422,0.364460937 L3.72182422,1.40069531 L0.897488281,1.40069531 C0.402617187,1.40073828 0,1.8033125 0,2.29822656 L0,17.6228594 C0,18.1177305 0.402617187,18.5203047 0.897488281,18.5203047 L8.89783984,18.5203047 C9.07585937,18.5203047 9.22010547,18.3760586 9.22010547,18.1980391 C9.22010547,18.0200195 9.07585937,17.8757734 8.89783984,17.8757734 L0.897488281,17.8757734 C0.758054687,17.8757734 0.644574219,17.7623359 0.644574219,17.6229023 L0.644574219,5.58512109 L18.6550977,5.58512109 L18.6550977,13.360918 L15.0377305,13.360918 C14.5428594,13.360918 14.1402852,13.7635352 14.1402852,14.2584063 L14.1402852,17.8757305 L10.4017891,17.8757305 C10.2237695,17.8757305 10.0795234,18.0199766 10.0795234,18.1979961 C10.0795234,18.3760156 10.2237695,18.5202617 10.4017891,18.5202617 L14.4625508,18.5202617 C14.5456953,18.5202617 14.6290547,18.4873047 14.690457,18.4259023 L15.467332,17.6490273 L20.8810937,17.6490273 C21.5810547,17.6490273 22.1066914,17.0396445 21.9814805,16.3808477 Z M0.644574219,4.94054687 L0.644574219,2.29822656 C0.644574219,2.15879297 0.758054687,2.0453125 0.897488281,2.0453125 L3.72182422,2.0453125 L3.72182422,3.49292969 C3.72182422,3.67094922 3.86607031,3.81519531 4.04408984,3.81519531 C4.22210937,3.81519531 4.36635547,3.67094922 4.36635547,3.49292969 L4.36635547,2.0453125 L6.52467578,2.0453125 L6.52467578,3.49292969 C6.52467578,3.67094922 6.66892187,3.81519531 6.84694141,3.81519531 C7.02496094,3.81519531 7.16920703,3.67094922 7.16920703,3.49292969 L7.16920703,2.0453125 L9.32752734,2.0453125 L9.32752734,3.49292969 C9.32752734,3.67094922 9.47177344,3.81519531 9.64979297,3.81519531 C9.8278125,3.81519531 9.97205859,3.67094922 9.97205859,3.49292969 L9.97205859,2.0453125 L12.1304219,2.0453125 L12.1304219,3.49292969 C12.1304219,3.67094922 12.274668,3.81519531 12.4526875,3.81519531 C12.630707,3.81519531 12.7749531,3.67094922 12.7749531,3.49292969 L12.7749531,2.0453125 L14.9332734,2.0453125 L14.9332734,3.49292969 C14.9332734,3.67094922 15.0775195,3.81519531 15.2555391,3.81519531 C15.4335586,3.81519531 15.5778047,3.67094922 15.5778047,3.49292969 L15.5778047,2.0453125 L18.4021406,2.0453125 C18.5415742,2.0453125 18.6550547,2.15879297 18.6550547,2.29822656 L18.6550547,4.94058984 L0.644574219,4.94058984 L0.644574219,4.94054687 Z M14.7848164,17.4199609 L14.7848164,14.2584492 C14.7848164,14.1190156 14.8982539,14.0055352 15.0376875,14.0055352 L18.1992422,14.0055352 C17.8767617,14.3280586 15.1079844,17.096793 14.7848164,17.4199609 Z" id="Shape" fill-rule="nonzero"></path>
            </g>
        </g>
    </g>
</svg>