<?xml version="1.0" encoding="UTF-8"?>
<svg width="23px" height="23px" viewBox="0 0 23 23" version="1.1" xmlns="http://www.w3.org/2000/svg" xmlns:xlink="http://www.w3.org/1999/xlink">
    <!-- Generator: Sketch 52.2 (67145) - http://www.bohemiancoding.com/sketch -->
    <title>sickness_d</title>
    <desc>Created with Sketch.</desc>
    <g id="Page-1" stroke="none" stroke-width="1" fill="none" fill-rule="evenodd">
        <g id="Admin_template" transform="translate(-15.000000, -344.000000)" fill="#000000">
            <g id="sickness_d" transform="translate(15.000000, 344.000000)">
                <path d="M11.4881788,-2.65957337e-14 C6.12577374,-2.65957337e-14 1.61019274,3.69329888 0.350268156,8.66965084 C0.335620112,8.70762011 0.326497207,8.74661732 0.321871508,8.78567877 C0.112044693,9.65267598 0,10.557514 0,11.4881788 C0,14.2145782 0.95527095,16.7217067 2.54786034,18.6937961 C2.57169553,18.7338212 2.60105587,18.7700559 2.6350419,18.8014721 C4.74391061,21.3499106 7.92960335,22.9762933 11.4881145,22.9762933 C17.8227514,22.9762933 22.9762933,17.8227514 22.9762933,11.4881145 C22.9762933,5.15347765 17.8228156,-2.84217094e-14 11.4881788,-2.65957337e-14 Z M11.4881788,0.963687151 C16.2775754,0.963687151 20.3296229,4.17963966 21.5993771,8.56537989 L16.4423017,11.2446872 C15.9614218,10.7464609 15.2876117,10.4356397 14.5421034,10.4356397 L8.43438268,10.4356397 C7.67775978,10.4356397 6.99495531,10.7557765 6.5127905,11.2671089 L1.36843575,8.59441899 C2.62855307,4.19377374 6.68818156,0.963687151 11.4881788,0.963687151 Z M6.75563966,17.1103296 L6.75563966,13.0779413 C6.75563966,12.152352 7.5086648,11.3993268 8.43431844,11.3993268 L14.5420391,11.3993268 C15.0921117,11.3993268 15.5811508,11.6652402 15.8875391,12.0753212 C15.8876034,12.0754497 15.8876676,12.0756425 15.8877318,12.0757709 C15.9055922,12.1100782 15.9276927,12.140595 15.9519134,12.1686061 C16.1216508,12.4308575 16.2206536,12.7429637 16.2206536,13.0779413 L16.2206536,17.1103296 C16.2206536,18.035919 15.4676285,18.7889441 14.5420391,18.7889441 L8.43431844,18.7889441 C7.5086648,18.7890084 6.75563966,18.035919 6.75563966,17.1103296 Z M1.14094134,9.56215363 L5.98809497,12.0803966 C5.86204469,12.3883911 5.79195251,12.7250391 5.79195251,13.0778771 L5.79195251,17.1102654 C5.79195251,17.4098436 5.84277095,17.6976006 5.93502793,17.9662123 L3.19931285,17.9662123 C1.79926816,16.1789581 0.963687151,13.9293268 0.963687151,11.4881788 C0.963687151,10.8304302 1.02491341,10.1868156 1.14094134,9.56215363 Z M4.05313966,18.9299637 L6.52107821,18.9299637 C7.00272905,19.4361564 7.68206425,19.7526313 8.43431844,19.7526313 L14.5420391,19.7526313 C15.2942933,19.7526313 15.9735642,19.4361564 16.4552151,18.9299637 L18.9231536,18.9299637 C17.0176872,20.8336955 14.3880419,22.0126061 11.4881145,22.0126061 C8.58818715,22.0126061 5.95860615,20.8336955 4.05313966,18.9299637 Z M19.7770447,17.9662765 L17.0412654,17.9662765 C17.1335223,17.6976006 17.1843408,17.4098436 17.1843408,17.1103296 L17.1843408,13.0779413 C17.1843408,12.714567 17.1105223,12.3680894 16.9772765,12.0526425 L21.8295698,9.53170112 C21.9492598,10.1658715 22.0126704,10.8197011 22.0126704,11.4881145 C22.0126704,13.9293268 21.1770251,16.1789581 19.7770447,17.9662765 Z" id="Shape" fill-rule="nonzero"></path>
                <path d="M5.01631285,8.94622905 C5.04111173,8.94892737 5.19202514,8.96421788 5.43352514,8.96421788 C6.2690419,8.96421788 8.18710056,8.7813743 9.7051648,7.26331006 C9.89334078,7.07513408 9.89334078,6.77003073 9.7051648,6.58191899 C9.51698883,6.39374302 9.21188547,6.39374302 9.02377374,6.58191899 C7.40349441,8.20219832 5.14910894,7.99121508 5.11994134,7.98819553 C4.85614804,7.96031285 4.61863128,8.15073743 4.58972067,8.4149162 C4.56074581,8.67935196 4.7517486,8.91725419 5.01631285,8.94622905 Z" id="Path"></path>
                <path d="M17.5428324,8.96415363 C17.7842039,8.96415363 17.9352458,8.94886313 17.9600447,8.9461648 C18.224095,8.91725419 18.4143268,8.6802514 18.3861229,8.41613687 C18.357919,8.15202235 18.1207235,7.96044134 17.8564804,7.98806704 C17.8338659,7.99050838 15.5753045,8.20451117 13.9525838,6.5817905 C13.7644078,6.39361453 13.4593045,6.39361453 13.2711927,6.5817905 C13.0830168,6.76996648 13.0830168,7.07506983 13.2711927,7.26318156 C14.7893855,8.78143855 16.7074441,8.96415363 17.5428324,8.96415363 Z" id="Path"></path>
            </g>
        </g>
    </g>
</svg>